<svg xmlns="http://www.w3.org/2000/svg" viewBox="0 0 512 512">
  <defs>
    <linearGradient id="grad" x1="0%" y1="0%" x2="100%" y2="100%">
      <stop offset="0%" stop-color="#3b82f6" />
      <stop offset="100%" stop-color="#ef4444" />
    </linearGradient>
    <filter id="shadow" x="-20%" y="-20%" width="140%" height="140%">
      <feDropShadow dx="0" dy="8" stdDeviation="12" flood-color="rgba(0,0,0,0.3)"/>
    </filter>
  </defs>
  
  <!-- Background Rounded Rect (Matches rounded-2xl proportion) -->
  <rect width="512" height="512" rx="100" fill="url(#grad)"/>
  
  <!-- Gamepad Icon (White) - Centered -->
  <g filter="url(#shadow)" fill="white" transform="translate(86, 136) scale(0.68)">
      <path d="M416 96H96c-53 0-96 43-96 96v24c0 14 3.7 27 10 38.6l23 79.4c11.6 40 48.4 68 90.6 68H160c14.7 0 28.3-4.8 39.4-13l37.8-28.4c7.6-5.7 18-5.7 25.6 0l37.8 28.4c11.1 8.3 24.7 13 39.4 13h36.4c42.2 0 79-28 90.6-68l23-79.4c6.3-11.6 10-24.6 10-38.6v-24c0-53-43-96-96-96z M128 256c-17.7 0-32-14.3-32-32s14.3-32 32-32 32 14.3 32 32-14.3 32-32 32zm80-32c0 17.7-14.3 32-32 32s-32-14.3-32-32 14.3-32 32-32 32 14.3 32 32zm176 32h-48c-8.8 0-16-7.2-16-16s7.2-16 16-16h48c8.8 0 16 7.2 16 16s-7.2 16-16 16zm16-48h-80c-8.8 0-16-7.2-16-16s7.2-16 16-16h80c8.8 0 16 7.2 16 16s-7.2 16-16 16z"/>
  </g>
</svg>
